# xmcd CD database file
#
# Track frame offsets:
#	150
#	16645
#	28912
#	45632
#	65837
#	82925
#	87067
#	107357
#	131185
#	139437
#
# Disc length: 2140 seconds
#
# Revision: 0
# Processed by: cddbd v1.5.2PL0 Copyright (c) Steve Scherf et al.
# Submitted via: CDex 1.70beta2
#
DISCID=7f085a0a
DTITLE=Jefferson Golcalves, Big Joe Manfra e Convidados - Blues E Etc
DYEAR=2001
DGENRE=Blues
TTITLE0=Take That Woman Off My Door
TTITLE1=Fishing Blues
TTITLE2=Crossroads Blues
TTITLE3=Up The Mountain Road
TTITLE4=Sittin' On The Dock Of The Bay
TTITLE5=Calango
TTITLE6=Spoonfool
TTITLE7=I'm Ready
TTITLE8=Jeff's Boogie
TTITLE9=Nobody Knows You When You're Down And Out
EXTD=YEAR: 2001
EXTT0=
EXTT1=
EXTT2=
EXTT3=
EXTT4=
EXTT5=
EXTT6=
EXTT7=
EXTT8=
EXTT9=
PLAYORDER=
